<mxfile host="app.diagrams.net" modified="2022-01-10T04:57:59.712Z" agent="5.0 (Windows NT 10.0; Win64; x64) AppleWebKit/537.36 (KHTML, like Gecko) Chrome/96.0.4664.110 Safari/537.36" etag="42k0qojRHQEV_ueduZlI" version="16.2.2" type="github">
  <diagram id="S9c6dkM3OsgLaRIrgmF8" name="Page-1">
    <mxGraphModel dx="782" dy="436" grid="1" gridSize="10" guides="1" tooltips="1" connect="1" arrows="1" fold="1" page="1" pageScale="1" pageWidth="827" pageHeight="1169" math="0" shadow="0">
      <root>
        <mxCell id="0" />
        <mxCell id="1" parent="0" />
        <mxCell id="T8nTVlpNqkmXWoS-oqTl-1" value="float 举例" style="text;html=1;align=center;verticalAlign=middle;resizable=0;points=[];autosize=1;strokeColor=none;fillColor=none;" vertex="1" parent="1">
          <mxGeometry x="20" y="20" width="70" height="20" as="geometry" />
        </mxCell>
        <mxCell id="T8nTVlpNqkmXWoS-oqTl-2" value="8.5 实际的存储方式" style="rounded=0;whiteSpace=wrap;html=1;fontSize=12;strokeColor=none;fillColor=#cce5ff;" vertex="1" parent="1">
          <mxGeometry x="90" y="10" width="120" height="40" as="geometry" />
        </mxCell>
        <mxCell id="T8nTVlpNqkmXWoS-oqTl-3" value="0x41080000" style="rounded=0;whiteSpace=wrap;html=1;fontSize=12;strokeColor=#82b366;fillColor=#d5e8d4;" vertex="1" parent="1">
          <mxGeometry x="210" y="10" width="120" height="40" as="geometry" />
        </mxCell>
        <mxCell id="T8nTVlpNqkmXWoS-oqTl-4" value="" style="shape=table;startSize=0;container=1;collapsible=0;childLayout=tableLayout;labelBackgroundColor=none;fontFamily=Helvetica;fontSize=12;fontColor=default;strokeColor=#6c8ebf;fillColor=#dae8fc;" vertex="1" parent="1">
          <mxGeometry x="30" y="80" width="130" height="40" as="geometry" />
        </mxCell>
        <mxCell id="T8nTVlpNqkmXWoS-oqTl-5" value="" style="shape=tableRow;horizontal=0;startSize=0;swimlaneHead=0;swimlaneBody=0;top=0;left=0;bottom=0;right=0;collapsible=0;dropTarget=0;fillColor=none;points=[[0,0.5],[1,0.5]];portConstraint=eastwest;labelBackgroundColor=none;fontFamily=Helvetica;fontSize=12;fontColor=default;strokeColor=#6c8ebf;" vertex="1" parent="T8nTVlpNqkmXWoS-oqTl-4">
          <mxGeometry width="130" height="40" as="geometry" />
        </mxCell>
        <mxCell id="T8nTVlpNqkmXWoS-oqTl-6" value="0" style="shape=partialRectangle;html=1;whiteSpace=wrap;connectable=0;overflow=hidden;fillColor=#fff2cc;top=0;left=0;bottom=0;right=0;pointerEvents=1;labelBackgroundColor=none;fontFamily=Helvetica;fontSize=12;startSize=0;strokeColor=#d6b656;" vertex="1" parent="T8nTVlpNqkmXWoS-oqTl-5">
          <mxGeometry width="33" height="40" as="geometry">
            <mxRectangle width="33" height="40" as="alternateBounds" />
          </mxGeometry>
        </mxCell>
        <mxCell id="T8nTVlpNqkmXWoS-oqTl-7" value="1" style="shape=partialRectangle;html=1;whiteSpace=wrap;connectable=0;overflow=hidden;fillColor=#f8cecc;top=0;left=0;bottom=0;right=0;pointerEvents=1;labelBackgroundColor=none;fontFamily=Helvetica;fontSize=12;startSize=0;strokeColor=#b85450;" vertex="1" parent="T8nTVlpNqkmXWoS-oqTl-5">
          <mxGeometry x="33" width="32" height="40" as="geometry">
            <mxRectangle width="32" height="40" as="alternateBounds" />
          </mxGeometry>
        </mxCell>
        <mxCell id="T8nTVlpNqkmXWoS-oqTl-8" value="0" style="shape=partialRectangle;html=1;whiteSpace=wrap;connectable=0;overflow=hidden;fillColor=#f8cecc;top=0;left=0;bottom=0;right=0;pointerEvents=1;labelBackgroundColor=none;fontFamily=Helvetica;fontSize=12;startSize=0;strokeColor=#b85450;" vertex="1" parent="T8nTVlpNqkmXWoS-oqTl-5">
          <mxGeometry x="65" width="33" height="40" as="geometry">
            <mxRectangle width="33" height="40" as="alternateBounds" />
          </mxGeometry>
        </mxCell>
        <mxCell id="T8nTVlpNqkmXWoS-oqTl-9" value="0" style="shape=partialRectangle;html=1;whiteSpace=wrap;connectable=0;overflow=hidden;fillColor=#f8cecc;top=0;left=0;bottom=0;right=0;pointerEvents=1;labelBackgroundColor=none;fontFamily=Helvetica;fontSize=12;startSize=0;strokeColor=#b85450;" vertex="1" parent="T8nTVlpNqkmXWoS-oqTl-5">
          <mxGeometry x="98" width="32" height="40" as="geometry">
            <mxRectangle width="32" height="40" as="alternateBounds" />
          </mxGeometry>
        </mxCell>
        <mxCell id="T8nTVlpNqkmXWoS-oqTl-10" value="" style="shape=table;startSize=0;container=1;collapsible=0;childLayout=tableLayout;labelBackgroundColor=none;fontFamily=Helvetica;fontSize=12;strokeColor=#b85450;fillColor=#f8cecc;" vertex="1" parent="1">
          <mxGeometry x="190" y="80" width="130" height="40" as="geometry" />
        </mxCell>
        <mxCell id="T8nTVlpNqkmXWoS-oqTl-11" value="" style="shape=tableRow;horizontal=0;startSize=0;swimlaneHead=0;swimlaneBody=0;top=0;left=0;bottom=0;right=0;collapsible=0;dropTarget=0;fillColor=none;points=[[0,0.5],[1,0.5]];portConstraint=eastwest;labelBackgroundColor=none;fontFamily=Helvetica;fontSize=12;fontColor=default;strokeColor=#6c8ebf;" vertex="1" parent="T8nTVlpNqkmXWoS-oqTl-10">
          <mxGeometry width="130" height="40" as="geometry" />
        </mxCell>
        <mxCell id="T8nTVlpNqkmXWoS-oqTl-12" value="0" style="shape=partialRectangle;html=1;whiteSpace=wrap;connectable=0;overflow=hidden;fillColor=none;top=0;left=0;bottom=0;right=0;pointerEvents=1;labelBackgroundColor=none;fontFamily=Helvetica;fontSize=12;fontColor=default;startSize=0;strokeColor=#6c8ebf;" vertex="1" parent="T8nTVlpNqkmXWoS-oqTl-11">
          <mxGeometry width="33" height="40" as="geometry">
            <mxRectangle width="33" height="40" as="alternateBounds" />
          </mxGeometry>
        </mxCell>
        <mxCell id="T8nTVlpNqkmXWoS-oqTl-13" value="0" style="shape=partialRectangle;html=1;whiteSpace=wrap;connectable=0;overflow=hidden;fillColor=none;top=0;left=0;bottom=0;right=0;pointerEvents=1;labelBackgroundColor=none;fontFamily=Helvetica;fontSize=12;fontColor=default;startSize=0;strokeColor=#6c8ebf;" vertex="1" parent="T8nTVlpNqkmXWoS-oqTl-11">
          <mxGeometry x="33" width="32" height="40" as="geometry">
            <mxRectangle width="32" height="40" as="alternateBounds" />
          </mxGeometry>
        </mxCell>
        <mxCell id="T8nTVlpNqkmXWoS-oqTl-14" value="0" style="shape=partialRectangle;html=1;whiteSpace=wrap;connectable=0;overflow=hidden;fillColor=none;top=0;left=0;bottom=0;right=0;pointerEvents=1;labelBackgroundColor=none;fontFamily=Helvetica;fontSize=12;fontColor=default;startSize=0;strokeColor=#6c8ebf;" vertex="1" parent="T8nTVlpNqkmXWoS-oqTl-11">
          <mxGeometry x="65" width="33" height="40" as="geometry">
            <mxRectangle width="33" height="40" as="alternateBounds" />
          </mxGeometry>
        </mxCell>
        <mxCell id="T8nTVlpNqkmXWoS-oqTl-15" value="1" style="shape=partialRectangle;html=1;whiteSpace=wrap;connectable=0;overflow=hidden;fillColor=none;top=0;left=0;bottom=0;right=0;pointerEvents=1;labelBackgroundColor=none;fontFamily=Helvetica;fontSize=12;fontColor=default;startSize=0;strokeColor=#6c8ebf;" vertex="1" parent="T8nTVlpNqkmXWoS-oqTl-11">
          <mxGeometry x="98" width="32" height="40" as="geometry">
            <mxRectangle width="32" height="40" as="alternateBounds" />
          </mxGeometry>
        </mxCell>
        <mxCell id="T8nTVlpNqkmXWoS-oqTl-16" value="" style="shape=table;startSize=0;container=1;collapsible=0;childLayout=tableLayout;labelBackgroundColor=none;fontFamily=Helvetica;fontSize=12;fontColor=default;strokeColor=#6c8ebf;fillColor=#dae8fc;" vertex="1" parent="1">
          <mxGeometry x="351" y="80" width="130" height="40" as="geometry" />
        </mxCell>
        <mxCell id="T8nTVlpNqkmXWoS-oqTl-17" value="" style="shape=tableRow;horizontal=0;startSize=0;swimlaneHead=0;swimlaneBody=0;top=0;left=0;bottom=0;right=0;collapsible=0;dropTarget=0;fillColor=none;points=[[0,0.5],[1,0.5]];portConstraint=eastwest;labelBackgroundColor=none;fontFamily=Helvetica;fontSize=12;fontColor=default;strokeColor=#6c8ebf;" vertex="1" parent="T8nTVlpNqkmXWoS-oqTl-16">
          <mxGeometry width="130" height="40" as="geometry" />
        </mxCell>
        <mxCell id="T8nTVlpNqkmXWoS-oqTl-18" value="0" style="shape=partialRectangle;html=1;whiteSpace=wrap;connectable=0;overflow=hidden;fillColor=#f8cecc;top=0;left=0;bottom=0;right=0;pointerEvents=1;labelBackgroundColor=none;fontFamily=Helvetica;fontSize=12;startSize=0;strokeColor=#b85450;" vertex="1" parent="T8nTVlpNqkmXWoS-oqTl-17">
          <mxGeometry width="33" height="40" as="geometry">
            <mxRectangle width="33" height="40" as="alternateBounds" />
          </mxGeometry>
        </mxCell>
        <mxCell id="T8nTVlpNqkmXWoS-oqTl-19" value="0" style="shape=partialRectangle;html=1;whiteSpace=wrap;connectable=0;overflow=hidden;fillColor=none;top=0;left=0;bottom=0;right=0;pointerEvents=1;labelBackgroundColor=none;fontFamily=Helvetica;fontSize=12;fontColor=default;startSize=0;strokeColor=#6c8ebf;" vertex="1" parent="T8nTVlpNqkmXWoS-oqTl-17">
          <mxGeometry x="33" width="32" height="40" as="geometry">
            <mxRectangle width="32" height="40" as="alternateBounds" />
          </mxGeometry>
        </mxCell>
        <mxCell id="T8nTVlpNqkmXWoS-oqTl-20" value="0" style="shape=partialRectangle;html=1;whiteSpace=wrap;connectable=0;overflow=hidden;fillColor=none;top=0;left=0;bottom=0;right=0;pointerEvents=1;labelBackgroundColor=none;fontFamily=Helvetica;fontSize=12;fontColor=default;startSize=0;strokeColor=#6c8ebf;" vertex="1" parent="T8nTVlpNqkmXWoS-oqTl-17">
          <mxGeometry x="65" width="33" height="40" as="geometry">
            <mxRectangle width="33" height="40" as="alternateBounds" />
          </mxGeometry>
        </mxCell>
        <mxCell id="T8nTVlpNqkmXWoS-oqTl-21" value="0" style="shape=partialRectangle;html=1;whiteSpace=wrap;connectable=0;overflow=hidden;fillColor=none;top=0;left=0;bottom=0;right=0;pointerEvents=1;labelBackgroundColor=none;fontFamily=Helvetica;fontSize=12;fontColor=default;startSize=0;strokeColor=#6c8ebf;" vertex="1" parent="T8nTVlpNqkmXWoS-oqTl-17">
          <mxGeometry x="98" width="32" height="40" as="geometry">
            <mxRectangle width="32" height="40" as="alternateBounds" />
          </mxGeometry>
        </mxCell>
        <mxCell id="T8nTVlpNqkmXWoS-oqTl-22" value="" style="shape=table;startSize=0;container=1;collapsible=0;childLayout=tableLayout;labelBackgroundColor=none;fontFamily=Helvetica;fontSize=12;fontColor=default;strokeColor=#6c8ebf;fillColor=#dae8fc;" vertex="1" parent="1">
          <mxGeometry x="510" y="80" width="130" height="40" as="geometry" />
        </mxCell>
        <mxCell id="T8nTVlpNqkmXWoS-oqTl-23" value="" style="shape=tableRow;horizontal=0;startSize=0;swimlaneHead=0;swimlaneBody=0;top=0;left=0;bottom=0;right=0;collapsible=0;dropTarget=0;fillColor=none;points=[[0,0.5],[1,0.5]];portConstraint=eastwest;labelBackgroundColor=none;fontFamily=Helvetica;fontSize=12;fontColor=default;strokeColor=#6c8ebf;" vertex="1" parent="T8nTVlpNqkmXWoS-oqTl-22">
          <mxGeometry width="130" height="40" as="geometry" />
        </mxCell>
        <mxCell id="T8nTVlpNqkmXWoS-oqTl-24" value="1" style="shape=partialRectangle;html=1;whiteSpace=wrap;connectable=0;overflow=hidden;fillColor=none;top=0;left=0;bottom=0;right=0;pointerEvents=1;labelBackgroundColor=none;fontFamily=Helvetica;fontSize=12;fontColor=default;startSize=0;strokeColor=#6c8ebf;" vertex="1" parent="T8nTVlpNqkmXWoS-oqTl-23">
          <mxGeometry width="33" height="40" as="geometry">
            <mxRectangle width="33" height="40" as="alternateBounds" />
          </mxGeometry>
        </mxCell>
        <mxCell id="T8nTVlpNqkmXWoS-oqTl-25" value="0" style="shape=partialRectangle;html=1;whiteSpace=wrap;connectable=0;overflow=hidden;fillColor=none;top=0;left=0;bottom=0;right=0;pointerEvents=1;labelBackgroundColor=none;fontFamily=Helvetica;fontSize=12;fontColor=default;startSize=0;strokeColor=#6c8ebf;" vertex="1" parent="T8nTVlpNqkmXWoS-oqTl-23">
          <mxGeometry x="33" width="32" height="40" as="geometry">
            <mxRectangle width="32" height="40" as="alternateBounds" />
          </mxGeometry>
        </mxCell>
        <mxCell id="T8nTVlpNqkmXWoS-oqTl-26" value="0" style="shape=partialRectangle;html=1;whiteSpace=wrap;connectable=0;overflow=hidden;fillColor=none;top=0;left=0;bottom=0;right=0;pointerEvents=1;labelBackgroundColor=none;fontFamily=Helvetica;fontSize=12;fontColor=default;startSize=0;strokeColor=#6c8ebf;" vertex="1" parent="T8nTVlpNqkmXWoS-oqTl-23">
          <mxGeometry x="65" width="33" height="40" as="geometry">
            <mxRectangle width="33" height="40" as="alternateBounds" />
          </mxGeometry>
        </mxCell>
        <mxCell id="T8nTVlpNqkmXWoS-oqTl-27" value="0" style="shape=partialRectangle;html=1;whiteSpace=wrap;connectable=0;overflow=hidden;fillColor=none;top=0;left=0;bottom=0;right=0;pointerEvents=1;labelBackgroundColor=none;fontFamily=Helvetica;fontSize=12;fontColor=default;startSize=0;strokeColor=#6c8ebf;" vertex="1" parent="T8nTVlpNqkmXWoS-oqTl-23">
          <mxGeometry x="98" width="32" height="40" as="geometry">
            <mxRectangle width="32" height="40" as="alternateBounds" />
          </mxGeometry>
        </mxCell>
        <mxCell id="T8nTVlpNqkmXWoS-oqTl-28" value="" style="shape=table;startSize=0;container=1;collapsible=0;childLayout=tableLayout;labelBackgroundColor=none;fontFamily=Helvetica;fontSize=12;fontColor=default;strokeColor=#6c8ebf;fillColor=#dae8fc;" vertex="1" parent="1">
          <mxGeometry x="30" y="150" width="130" height="40" as="geometry" />
        </mxCell>
        <mxCell id="T8nTVlpNqkmXWoS-oqTl-29" value="" style="shape=tableRow;horizontal=0;startSize=0;swimlaneHead=0;swimlaneBody=0;top=0;left=0;bottom=0;right=0;collapsible=0;dropTarget=0;fillColor=none;points=[[0,0.5],[1,0.5]];portConstraint=eastwest;labelBackgroundColor=none;fontFamily=Helvetica;fontSize=12;fontColor=default;strokeColor=#6c8ebf;" vertex="1" parent="T8nTVlpNqkmXWoS-oqTl-28">
          <mxGeometry width="130" height="40" as="geometry" />
        </mxCell>
        <mxCell id="T8nTVlpNqkmXWoS-oqTl-30" value="0" style="shape=partialRectangle;html=1;whiteSpace=wrap;connectable=0;overflow=hidden;fillColor=none;top=0;left=0;bottom=0;right=0;pointerEvents=1;labelBackgroundColor=none;fontFamily=Helvetica;fontSize=12;fontColor=default;startSize=0;strokeColor=#6c8ebf;" vertex="1" parent="T8nTVlpNqkmXWoS-oqTl-29">
          <mxGeometry width="33" height="40" as="geometry">
            <mxRectangle width="33" height="40" as="alternateBounds" />
          </mxGeometry>
        </mxCell>
        <mxCell id="T8nTVlpNqkmXWoS-oqTl-31" value="0" style="shape=partialRectangle;html=1;whiteSpace=wrap;connectable=0;overflow=hidden;fillColor=none;top=0;left=0;bottom=0;right=0;pointerEvents=1;labelBackgroundColor=none;fontFamily=Helvetica;fontSize=12;fontColor=default;startSize=0;strokeColor=#6c8ebf;" vertex="1" parent="T8nTVlpNqkmXWoS-oqTl-29">
          <mxGeometry x="33" width="32" height="40" as="geometry">
            <mxRectangle width="32" height="40" as="alternateBounds" />
          </mxGeometry>
        </mxCell>
        <mxCell id="T8nTVlpNqkmXWoS-oqTl-32" value="0" style="shape=partialRectangle;html=1;whiteSpace=wrap;connectable=0;overflow=hidden;fillColor=none;top=0;left=0;bottom=0;right=0;pointerEvents=1;labelBackgroundColor=none;fontFamily=Helvetica;fontSize=12;fontColor=default;startSize=0;strokeColor=#6c8ebf;" vertex="1" parent="T8nTVlpNqkmXWoS-oqTl-29">
          <mxGeometry x="65" width="33" height="40" as="geometry">
            <mxRectangle width="33" height="40" as="alternateBounds" />
          </mxGeometry>
        </mxCell>
        <mxCell id="T8nTVlpNqkmXWoS-oqTl-33" value="0" style="shape=partialRectangle;html=1;whiteSpace=wrap;connectable=0;overflow=hidden;fillColor=none;top=0;left=0;bottom=0;right=0;pointerEvents=1;labelBackgroundColor=none;fontFamily=Helvetica;fontSize=12;fontColor=default;startSize=0;strokeColor=#6c8ebf;" vertex="1" parent="T8nTVlpNqkmXWoS-oqTl-29">
          <mxGeometry x="98" width="32" height="40" as="geometry">
            <mxRectangle width="32" height="40" as="alternateBounds" />
          </mxGeometry>
        </mxCell>
        <mxCell id="T8nTVlpNqkmXWoS-oqTl-34" value="" style="shape=table;startSize=0;container=1;collapsible=0;childLayout=tableLayout;labelBackgroundColor=none;fontFamily=Helvetica;fontSize=12;fontColor=default;strokeColor=#6c8ebf;fillColor=#dae8fc;" vertex="1" parent="1">
          <mxGeometry x="190" y="150" width="130" height="40" as="geometry" />
        </mxCell>
        <mxCell id="T8nTVlpNqkmXWoS-oqTl-35" value="" style="shape=tableRow;horizontal=0;startSize=0;swimlaneHead=0;swimlaneBody=0;top=0;left=0;bottom=0;right=0;collapsible=0;dropTarget=0;fillColor=none;points=[[0,0.5],[1,0.5]];portConstraint=eastwest;labelBackgroundColor=none;fontFamily=Helvetica;fontSize=12;fontColor=default;strokeColor=#6c8ebf;" vertex="1" parent="T8nTVlpNqkmXWoS-oqTl-34">
          <mxGeometry width="130" height="40" as="geometry" />
        </mxCell>
        <mxCell id="T8nTVlpNqkmXWoS-oqTl-36" value="0" style="shape=partialRectangle;html=1;whiteSpace=wrap;connectable=0;overflow=hidden;fillColor=none;top=0;left=0;bottom=0;right=0;pointerEvents=1;labelBackgroundColor=none;fontFamily=Helvetica;fontSize=12;fontColor=default;startSize=0;strokeColor=#6c8ebf;" vertex="1" parent="T8nTVlpNqkmXWoS-oqTl-35">
          <mxGeometry width="33" height="40" as="geometry">
            <mxRectangle width="33" height="40" as="alternateBounds" />
          </mxGeometry>
        </mxCell>
        <mxCell id="T8nTVlpNqkmXWoS-oqTl-37" value="0" style="shape=partialRectangle;html=1;whiteSpace=wrap;connectable=0;overflow=hidden;fillColor=none;top=0;left=0;bottom=0;right=0;pointerEvents=1;labelBackgroundColor=none;fontFamily=Helvetica;fontSize=12;fontColor=default;startSize=0;strokeColor=#6c8ebf;" vertex="1" parent="T8nTVlpNqkmXWoS-oqTl-35">
          <mxGeometry x="33" width="32" height="40" as="geometry">
            <mxRectangle width="32" height="40" as="alternateBounds" />
          </mxGeometry>
        </mxCell>
        <mxCell id="T8nTVlpNqkmXWoS-oqTl-38" value="0" style="shape=partialRectangle;html=1;whiteSpace=wrap;connectable=0;overflow=hidden;fillColor=none;top=0;left=0;bottom=0;right=0;pointerEvents=1;labelBackgroundColor=none;fontFamily=Helvetica;fontSize=12;fontColor=default;startSize=0;strokeColor=#6c8ebf;" vertex="1" parent="T8nTVlpNqkmXWoS-oqTl-35">
          <mxGeometry x="65" width="33" height="40" as="geometry">
            <mxRectangle width="33" height="40" as="alternateBounds" />
          </mxGeometry>
        </mxCell>
        <mxCell id="T8nTVlpNqkmXWoS-oqTl-39" value="0" style="shape=partialRectangle;html=1;whiteSpace=wrap;connectable=0;overflow=hidden;fillColor=none;top=0;left=0;bottom=0;right=0;pointerEvents=1;labelBackgroundColor=none;fontFamily=Helvetica;fontSize=12;fontColor=default;startSize=0;strokeColor=#6c8ebf;" vertex="1" parent="T8nTVlpNqkmXWoS-oqTl-35">
          <mxGeometry x="98" width="32" height="40" as="geometry">
            <mxRectangle width="32" height="40" as="alternateBounds" />
          </mxGeometry>
        </mxCell>
        <mxCell id="T8nTVlpNqkmXWoS-oqTl-40" value="" style="shape=table;startSize=0;container=1;collapsible=0;childLayout=tableLayout;labelBackgroundColor=none;fontFamily=Helvetica;fontSize=12;fontColor=default;strokeColor=#6c8ebf;fillColor=#dae8fc;" vertex="1" parent="1">
          <mxGeometry x="351" y="150" width="130" height="40" as="geometry" />
        </mxCell>
        <mxCell id="T8nTVlpNqkmXWoS-oqTl-41" value="" style="shape=tableRow;horizontal=0;startSize=0;swimlaneHead=0;swimlaneBody=0;top=0;left=0;bottom=0;right=0;collapsible=0;dropTarget=0;fillColor=none;points=[[0,0.5],[1,0.5]];portConstraint=eastwest;labelBackgroundColor=none;fontFamily=Helvetica;fontSize=12;fontColor=default;strokeColor=#6c8ebf;" vertex="1" parent="T8nTVlpNqkmXWoS-oqTl-40">
          <mxGeometry width="130" height="40" as="geometry" />
        </mxCell>
        <mxCell id="T8nTVlpNqkmXWoS-oqTl-42" value="0" style="shape=partialRectangle;html=1;whiteSpace=wrap;connectable=0;overflow=hidden;fillColor=none;top=0;left=0;bottom=0;right=0;pointerEvents=1;labelBackgroundColor=none;fontFamily=Helvetica;fontSize=12;fontColor=default;startSize=0;strokeColor=#6c8ebf;" vertex="1" parent="T8nTVlpNqkmXWoS-oqTl-41">
          <mxGeometry width="33" height="40" as="geometry">
            <mxRectangle width="33" height="40" as="alternateBounds" />
          </mxGeometry>
        </mxCell>
        <mxCell id="T8nTVlpNqkmXWoS-oqTl-43" value="0" style="shape=partialRectangle;html=1;whiteSpace=wrap;connectable=0;overflow=hidden;fillColor=none;top=0;left=0;bottom=0;right=0;pointerEvents=1;labelBackgroundColor=none;fontFamily=Helvetica;fontSize=12;fontColor=default;startSize=0;strokeColor=#6c8ebf;" vertex="1" parent="T8nTVlpNqkmXWoS-oqTl-41">
          <mxGeometry x="33" width="32" height="40" as="geometry">
            <mxRectangle width="32" height="40" as="alternateBounds" />
          </mxGeometry>
        </mxCell>
        <mxCell id="T8nTVlpNqkmXWoS-oqTl-44" value="0" style="shape=partialRectangle;html=1;whiteSpace=wrap;connectable=0;overflow=hidden;fillColor=none;top=0;left=0;bottom=0;right=0;pointerEvents=1;labelBackgroundColor=none;fontFamily=Helvetica;fontSize=12;fontColor=default;startSize=0;strokeColor=#6c8ebf;" vertex="1" parent="T8nTVlpNqkmXWoS-oqTl-41">
          <mxGeometry x="65" width="33" height="40" as="geometry">
            <mxRectangle width="33" height="40" as="alternateBounds" />
          </mxGeometry>
        </mxCell>
        <mxCell id="T8nTVlpNqkmXWoS-oqTl-45" value="0" style="shape=partialRectangle;html=1;whiteSpace=wrap;connectable=0;overflow=hidden;fillColor=none;top=0;left=0;bottom=0;right=0;pointerEvents=1;labelBackgroundColor=none;fontFamily=Helvetica;fontSize=12;fontColor=default;startSize=0;strokeColor=#6c8ebf;" vertex="1" parent="T8nTVlpNqkmXWoS-oqTl-41">
          <mxGeometry x="98" width="32" height="40" as="geometry">
            <mxRectangle width="32" height="40" as="alternateBounds" />
          </mxGeometry>
        </mxCell>
        <mxCell id="T8nTVlpNqkmXWoS-oqTl-46" value="" style="shape=table;startSize=0;container=1;collapsible=0;childLayout=tableLayout;labelBackgroundColor=none;fontFamily=Helvetica;fontSize=12;fontColor=default;strokeColor=#6c8ebf;fillColor=#dae8fc;" vertex="1" parent="1">
          <mxGeometry x="510" y="150" width="130" height="40" as="geometry" />
        </mxCell>
        <mxCell id="T8nTVlpNqkmXWoS-oqTl-47" value="" style="shape=tableRow;horizontal=0;startSize=0;swimlaneHead=0;swimlaneBody=0;top=0;left=0;bottom=0;right=0;collapsible=0;dropTarget=0;fillColor=none;points=[[0,0.5],[1,0.5]];portConstraint=eastwest;labelBackgroundColor=none;fontFamily=Helvetica;fontSize=12;fontColor=default;strokeColor=#6c8ebf;" vertex="1" parent="T8nTVlpNqkmXWoS-oqTl-46">
          <mxGeometry width="130" height="40" as="geometry" />
        </mxCell>
        <mxCell id="T8nTVlpNqkmXWoS-oqTl-48" value="0" style="shape=partialRectangle;html=1;whiteSpace=wrap;connectable=0;overflow=hidden;fillColor=none;top=0;left=0;bottom=0;right=0;pointerEvents=1;labelBackgroundColor=none;fontFamily=Helvetica;fontSize=12;fontColor=default;startSize=0;strokeColor=#6c8ebf;" vertex="1" parent="T8nTVlpNqkmXWoS-oqTl-47">
          <mxGeometry width="33" height="40" as="geometry">
            <mxRectangle width="33" height="40" as="alternateBounds" />
          </mxGeometry>
        </mxCell>
        <mxCell id="T8nTVlpNqkmXWoS-oqTl-49" value="0" style="shape=partialRectangle;html=1;whiteSpace=wrap;connectable=0;overflow=hidden;fillColor=none;top=0;left=0;bottom=0;right=0;pointerEvents=1;labelBackgroundColor=none;fontFamily=Helvetica;fontSize=12;fontColor=default;startSize=0;strokeColor=#6c8ebf;" vertex="1" parent="T8nTVlpNqkmXWoS-oqTl-47">
          <mxGeometry x="33" width="32" height="40" as="geometry">
            <mxRectangle width="32" height="40" as="alternateBounds" />
          </mxGeometry>
        </mxCell>
        <mxCell id="T8nTVlpNqkmXWoS-oqTl-50" value="0" style="shape=partialRectangle;html=1;whiteSpace=wrap;connectable=0;overflow=hidden;fillColor=none;top=0;left=0;bottom=0;right=0;pointerEvents=1;labelBackgroundColor=none;fontFamily=Helvetica;fontSize=12;fontColor=default;startSize=0;strokeColor=#6c8ebf;" vertex="1" parent="T8nTVlpNqkmXWoS-oqTl-47">
          <mxGeometry x="65" width="33" height="40" as="geometry">
            <mxRectangle width="33" height="40" as="alternateBounds" />
          </mxGeometry>
        </mxCell>
        <mxCell id="T8nTVlpNqkmXWoS-oqTl-51" value="0" style="shape=partialRectangle;html=1;whiteSpace=wrap;connectable=0;overflow=hidden;fillColor=none;top=0;left=0;bottom=0;right=0;pointerEvents=1;labelBackgroundColor=none;fontFamily=Helvetica;fontSize=12;fontColor=default;startSize=0;strokeColor=#6c8ebf;" vertex="1" parent="T8nTVlpNqkmXWoS-oqTl-47">
          <mxGeometry x="98" width="32" height="40" as="geometry">
            <mxRectangle width="32" height="40" as="alternateBounds" />
          </mxGeometry>
        </mxCell>
        <mxCell id="T8nTVlpNqkmXWoS-oqTl-52" value="" style="rounded=0;whiteSpace=wrap;html=1;fillColor=none;strokeColor=#999999;strokeWidth=2;dashed=1;labelBackgroundColor=none;fontFamily=Helvetica;fontSize=12;fontColor=default;startSize=0;" vertex="1" parent="1">
          <mxGeometry x="380" y="70" width="170" height="60" as="geometry" />
        </mxCell>
        <mxCell id="T8nTVlpNqkmXWoS-oqTl-53" value="" style="rounded=0;whiteSpace=wrap;html=1;fontSize=12;strokeColor=#d6b656;fillColor=#fff2cc;labelBackgroundColor=none;fontFamily=Helvetica;startSize=0;" vertex="1" parent="1">
          <mxGeometry x="30" y="230" width="40" height="30" as="geometry" />
        </mxCell>
        <mxCell id="T8nTVlpNqkmXWoS-oqTl-54" value="" style="rounded=0;whiteSpace=wrap;html=1;fontSize=12;strokeColor=#b85450;fillColor=#f8cecc;labelBackgroundColor=none;fontFamily=Helvetica;startSize=0;" vertex="1" parent="1">
          <mxGeometry x="30" y="280" width="40" height="30" as="geometry" />
        </mxCell>
        <mxCell id="T8nTVlpNqkmXWoS-oqTl-55" value="" style="rounded=0;whiteSpace=wrap;html=1;fontSize=12;strokeColor=#6c8ebf;fillColor=#dae8fc;labelBackgroundColor=none;fontFamily=Helvetica;startSize=0;" vertex="1" parent="1">
          <mxGeometry x="30" y="330" width="40" height="30" as="geometry" />
        </mxCell>
        <mxCell id="T8nTVlpNqkmXWoS-oqTl-56" value="" style="rounded=0;whiteSpace=wrap;html=1;fillColor=none;strokeColor=#999999;strokeWidth=2;dashed=1;labelBackgroundColor=none;fontFamily=Helvetica;fontSize=12;fontColor=default;startSize=0;" vertex="1" parent="1">
          <mxGeometry x="30" y="380" width="40" height="30" as="geometry" />
        </mxCell>
        <mxCell id="T8nTVlpNqkmXWoS-oqTl-57" value="符号位s" style="rounded=0;whiteSpace=wrap;html=1;fontSize=12;labelBackgroundColor=none;fontFamily=Helvetica;startSize=0;fillColor=#d5e8d4;strokeColor=#82b366;" vertex="1" parent="1">
          <mxGeometry x="90" y="230" width="120" height="30" as="geometry" />
        </mxCell>
        <mxCell id="T8nTVlpNqkmXWoS-oqTl-58" value="指数位e" style="rounded=0;whiteSpace=wrap;html=1;fontSize=12;labelBackgroundColor=none;fontFamily=Helvetica;startSize=0;fillColor=#d5e8d4;strokeColor=#82b366;" vertex="1" parent="1">
          <mxGeometry x="90" y="280" width="120" height="30" as="geometry" />
        </mxCell>
        <mxCell id="T8nTVlpNqkmXWoS-oqTl-59" value="float有效小数m" style="rounded=0;whiteSpace=wrap;html=1;fontSize=12;labelBackgroundColor=none;fontFamily=Helvetica;startSize=0;fillColor=#d5e8d4;strokeColor=#82b366;" vertex="1" parent="1">
          <mxGeometry x="90" y="330" width="120" height="30" as="geometry" />
        </mxCell>
        <mxCell id="T8nTVlpNqkmXWoS-oqTl-60" value="实际有效小数" style="rounded=0;whiteSpace=wrap;html=1;fontSize=12;labelBackgroundColor=none;fontFamily=Helvetica;startSize=0;fillColor=#d5e8d4;strokeColor=#82b366;" vertex="1" parent="1">
          <mxGeometry x="90" y="380" width="120" height="30" as="geometry" />
        </mxCell>
        <mxCell id="T8nTVlpNqkmXWoS-oqTl-62" value="&lt;span style=&quot;color: rgb(0 , 0 , 0) ; font-family: &amp;#34;helvetica&amp;#34; ; font-size: 12px ; font-style: normal ; font-weight: 400 ; letter-spacing: normal ; text-align: center ; text-indent: 0px ; text-transform: none ; word-spacing: 0px ; background-color: rgb(248 , 249 , 250) ; display: inline ; float: none&quot;&gt;0x80000,而float的规范小数为0x80000 | 0x800000&lt;/span&gt;" style="text;whiteSpace=wrap;html=1;fontSize=12;fontFamily=Helvetica;fontColor=default;" vertex="1" parent="1">
          <mxGeometry x="220" y="330" width="290" height="30" as="geometry" />
        </mxCell>
        <mxCell id="T8nTVlpNqkmXWoS-oqTl-63" value="&lt;span style=&quot;color: rgb(0 , 0 , 0) ; font-family: &amp;#34;helvetica&amp;#34; ; font-size: 12px ; font-style: normal ; font-weight: 400 ; letter-spacing: normal ; text-align: center ; text-indent: 0px ; text-transform: none ; word-spacing: 0px ; background-color: rgb(248 , 249 , 250) ; display: inline ; float: none&quot;&gt;0b1000 0010 对应0x82 对应 130&lt;/span&gt;" style="text;whiteSpace=wrap;html=1;" vertex="1" parent="1">
          <mxGeometry x="220" y="280" width="190" height="30" as="geometry" />
        </mxCell>
      </root>
    </mxGraphModel>
  </diagram>
</mxfile>
